<?xml version="1.0" encoding="UTF-8"?><svg id="uuid-bae03d14-fc41-49d0-8064-75bc0a978ac4" xmlns="http://www.w3.org/2000/svg" viewBox="0 0 841.9 595.3"><defs><style>.uuid-6eed4eb6-37e1-4816-afbc-75fd92228a18{fill:#002d3d;}.uuid-2d33cf3d-db43-4d75-8f66-6410cf9c5fce{fill:#fbaa26;}.uuid-4d9b50d3-95aa-4f0a-9d13-0d7e5463a83c{fill:#d6b9aa;}</style></defs><g id="uuid-7cd8e87b-b588-4bcd-a94e-5709aef9686d"><g><path class="uuid-6eed4eb6-37e1-4816-afbc-75fd92228a18" d="M688.4,262.4c-9.4-.2-17.2-4.2-23.3-11.9-5-6.4-7.5-14.4-7.7-24.4-.2-13.2,4-24.3,11.9-31.3,7.4-6.5,17.8-9,29.9-7.2,5.5,.8,10.7,2.2,16.3,3.7,2.3,.6,4.6,1.2,7,1.8,0-.8,.1-1.7,.2-2.6,.2-2.8,.5-6.1,.9-9.2,.3-2.4-.4-3.5-3-4.5-9.4-3.6-19.3-5.4-29.5-5.2-23.9,.5-40.2,10.1-48.6,28.6-9.7,21.3-7.5,41.2,6.4,59.1,.3,.4,.5,.8,.6,1.2,0,.2,.1,.3,.2,.5l.4,.9h-1c-2.6,0-12.7,0-23.4,0-53.9,.2-196,.5-208.4-.3-10.5-.7-18.7-7.2-22.6-17.9-1.6-4.5-2.3-9.3-2.9-14-.1-1-.3-2-.4-3-.3-2.3-.5-4.6-.7-6.9-.2-3.2-.5-6.4-1.2-9.5-3.5-15.2-15.1-28.3-31.1-35.1-16.3-7-34.2-6.3-48,1.9-.6,.4-1.3,1.5-1.3,2.1,.2,3.5,.6,7.1,1,10.8,.1,1,.2,2.1,.3,3.1,.2,0,.4-.2,.6-.3,.9-.4,1.7-.7,2.6-1,1.7-.5,3.5-1,5.2-1.6,4.1-1.3,8.4-2.6,12.7-3.2,18.4-2.4,33.5,8.2,37.6,26.3,1,4.5,1.4,9.5,1.2,15.4-.7,17.1-11.8,34.1-34.9,33.6-9-.2-18.1-.1-27,0-4.1,0-8.1,0-12.2,0l-3.1-1.1v15.8c.1,0-.8,1.1-.7,1.1,.8,0,1.4,.1,2.1,.1,4,0,7.9,0,11.9,0,11.2,0,22.8,0,34.2-.2,5.6-.1,11.2-1.5,15-2.6,9.3-2.6,17.5-8,24.3-16l.4-.5,.5,.3c.2,.1,.3,.2,.5,.3,.3,.2,.6,.4,.8,.6,9.8,12.1,23.1,18,40.7,18s.2,0,.3,0c29.8-.1,166.8,0,245.3,0,29.3,0,53,0,64.2,0,1,0,2,0,3.1-.1,.3,0,2.3,0,2.3,0v-15.8s-35.5,.2-49.6,0Z"/><path class="uuid-6eed4eb6-37e1-4816-afbc-75fd92228a18" d="M116.2,298.7c1.8-1,3.6-2,5.5-3.1,3.7-2.1,7.6-4.3,11.5-6.2,12.6-6,25.5-12.1,38-17.9,8.6-4.1,17.3-8.1,25.9-12.2,2.1-1,9-5.4,9-5.4l1.7-16.2s-8.8,4.8-9.7,5.2c-2.6,1.3-5.2,2.6-7.7,3.9-5.8,3-11.7,6.1-18,8.2-12.5,4.2-25.4,2.4-35.2-4.8-9.5-7.1-14.8-18.3-14.4-30.8,.3-9.7,3.6-17.7,9.4-23.2,5.8-5.4,13.8-8,23.1-7.7,4.9,.2,9.7,1.2,14.7,2.2,2.1,.4,4.2,.8,6.3,1.2,0-.6,.1-1.2,.2-1.9,.2-2.3,.4-5,.7-7.6,.3-2.2-.4-3.2-2.3-3.7-1.7-.4-3.4-.8-5.1-1.2-3.7-.9-7.5-1.9-11.3-2.3-2.3-.2-4.5-.3-6.7-.3-25.2,0-42.8,14.9-46.5,40-3.3,22.5,9.3,43.7,30.6,51.6,.9,.3,1.8,.7,3,1.1l3.2,1.2-3,1.7c-1,.6-1.8,1-2.6,1.5-2,1.1-3.9,2.1-5.9,3.2-4.7,2.5-9.5,5.1-14.2,7.7-1.5,.9-2.3,1.7-2.3,2.1-.5,3.9-.8,7.8-1.2,12,0,1.1-.2,2.3-.3,3.5l.8-.4c1-.5,1.8-.9,2.6-1.4Z"/><rect class="uuid-6eed4eb6-37e1-4816-afbc-75fd92228a18" x="242.3" y="124.3" width="17.5" height="154"/><path class="uuid-6eed4eb6-37e1-4816-afbc-75fd92228a18" d="M323.1,124.8h0c-7.3,0-13.5,5.8-13.5,12.8,0,7.1,6,12.9,13.4,12.9h0c7.4,0,13.4-5.7,13.5-12.8,0-3.3-1.3-6.4-3.7-8.8-2.5-2.6-6.1-4.1-9.7-4.1Z"/><path class="uuid-6eed4eb6-37e1-4816-afbc-75fd92228a18" d="M677.5,137.8c0,7,6.1,12.7,13.5,12.7s.1,0,.2,0c7.4,0,13.4-5.9,13.3-13,0-3.4-1.5-6.6-4.1-9-2.5-2.4-5.9-3.7-9.4-3.7s0,0-.1,0c-3.6,0-7.2,1.6-9.7,4.2-2.4,2.5-3.7,5.6-3.7,8.9Z"/></g></g><g><path class="uuid-2d33cf3d-db43-4d75-8f66-6410cf9c5fce" d="M488,162.2v10.4c0,6.2,3.5,11.7,8.9,14.7l14,8.1v-10.1c0-6.2-3.1-11.7-8.5-14.7l-14.5-8.4Z"/><path class="uuid-2d33cf3d-db43-4d75-8f66-6410cf9c5fce" d="M493.8,132.5v10.1c0,6.1,3.3,11.8,8.6,14.8l8.7,5v-10.1c0-6.1-3.3-11.8-8.6-14.8l-8.7-5Z"/><path class="uuid-2d33cf3d-db43-4d75-8f66-6410cf9c5fce" d="M545.3,162.2v10.4c0,6.2-3.5,11.7-8.9,14.7l-14,8.1v-10.1c0-6.2,3.1-11.7,8.5-14.7l14.5-8.4Z"/><path class="uuid-2d33cf3d-db43-4d75-8f66-6410cf9c5fce" d="M539.5,132.5v10.1c0,6.1-3.3,11.8-8.6,14.8l-8.7,5v-10.1c0-6.1,3.3-11.8,8.6-14.8l8.7-5Z"/><path class="uuid-4d9b50d3-95aa-4f0a-9d13-0d7e5463a83c" d="M493.7,199.8h0c-9.8-2.6-17.1-11.5-17.1-22.1v-25.4c0-6.3-5.1-11.4-11.4-11.4v48.5c0,14.3,8.8,26.6,21.3,31.7,0,0,0,0,0,0h0c4.2,1.7,7.2,5.8,7.2,10.6v10.4c0,1.6,1.3,2.9,2.9,2.9h11.6c1.5,0,2.7-1.3,2.7-2.9v-20.2c0-10.7-7.3-19.6-17.2-22.1Z"/><path class="uuid-4d9b50d3-95aa-4f0a-9d13-0d7e5463a83c" d="M539.6,199.8h0c9.8-2.6,17.1-11.5,17.1-22.1v-25.4c0-6.3,5.1-11.4,11.4-11.4v48.5c0,14.3-8.8,26.6-21.3,31.7,0,0,0,0,0,0h0c-4.2,1.7-7.2,5.8-7.2,10.6v10.4c0,1.6-1.3,2.9-2.9,2.9h-11.6c-1.5,0-2.7-1.3-2.7-2.9v-20.2c0-10.7,7.3-19.6,17.2-22.1Z"/></g><g><g id="uuid-680415ec-ea04-423f-b698-fa59a37cbfe4"><g><path class="uuid-6eed4eb6-37e1-4816-afbc-75fd92228a18" d="M218.2,326.1c-2.2,4.8-4.3,9.4-6.5,14.3-4.2-2-8-4-11.9-5.7-14.5-6.1-29.3-6.3-44.2-1.8-12.2,3.7-20.7,12-25.6,23.6-10.1,23.9-10.1,48.1-.8,72.1,5.5,14.3,16.2,22.9,31.3,25.6,14.3,2.6,28.4,2.5,42.3-2.4,1.9-.7,3.3-1.4,3.3-3.9-.1-12.6,0-25.2,0-37.8,0-.5-.1-1-.3-2h-34.3c.6-4.8,1-8.9,1.6-13,.1-.6,1.4-1.5,2.1-1.5,15.9,0,31.9,0,47.8,0,.2,0,.4,.2,1,.5,0,1.1,.2,2.3,.2,3.5,0,19.7,0,39.5,0,59.2,0,2.9-.9,4.3-3.5,5.4-16.6,7.2-34.1,9.9-52,8.2-9-.9-18.3-2.5-26.8-5.6-17.1-6.1-27.9-18.9-33.2-36-7.2-23.3-7.3-46.8,.7-69.8,8.9-25.7,27.4-40.1,54.4-43.4,17.1-2.1,33.6,0,49.2,7.7,1.7,.8,3.3,1.8,5.3,2.9Z"/><path class="uuid-6eed4eb6-37e1-4816-afbc-75fd92228a18" d="M275.6,312.7v65.7c1.7-1.4,2.7-2.1,3.7-3,8.5-7.2,17.5-13.3,28.8-15,9-1.4,17.8-.8,26.3,2.7,9.2,3.8,13.7,11,14.9,20.6,.5,3.5,.9,7.1,.9,10.6,.1,23.6,.1,47.1,.2,70.7,0,.8-.1,1.5-.2,2.6h-17.3v-4.4c0-20.1,0-40.2,0-60.4,0-4.9-.4-9.9-1.1-14.8-1.2-7.9-5.5-11.7-13.5-12.8-7.6-1-14.7,.6-21.5,4-7.6,3.8-14,9.2-19.5,15.7-1,1.2-1.5,3.2-1.5,4.8,0,21,0,42,0,63v4.8h-17.4c0-1.3-.2-2.7-.2-4,0-48.8,0-146.7,0-146.7l17.6-4.2Z"/><path class="uuid-6eed4eb6-37e1-4816-afbc-75fd92228a18" d="M547.8,312.7v65.7c1.7-1.4,2.7-2.1,3.7-3,8.5-7.2,17.5-13.3,28.8-15,9-1.4,17.8-.8,26.3,2.7,9.2,3.8,13.7,11,14.9,20.6,.5,3.5,.9,7.1,.9,10.6,.1,23.6,.1,47.1,.2,70.7,0,.8-.1,1.5-.2,2.6h-17.3v-4.4c0-20.1,0-40.2,0-60.4,0-4.9-.4-9.9-1.1-14.8-1.2-7.9-5.5-11.7-13.5-12.8-7.6-1-14.7,.6-21.5,4-7.6,3.8-14,9.2-19.5,15.7-1,1.2-1.5,3.2-1.5,4.8,0,21,0,42,0,63v4.8h-17.4c0-1.3-.2-2.7-.2-4,0-48.8,0-146.7,0-146.7l17.6-4.2Z"/><path class="uuid-6eed4eb6-37e1-4816-afbc-75fd92228a18" d="M721.1,400.6c-.9-5.6-1.2-10.8-2.6-15.7-1.5-5.3-5.7-8.4-11-9.5-14.8-3.3-28.6-.2-41.4,7.4-1,.6-2,1.2-3,1.7-.2,.1-.5,0-1.3,.1-2-3.8-4-7.8-6.3-12.1,7.6-4.8,15.5-8.3,23.9-10.2,13.4-3.1,26.8-3.8,40,1,10.7,3.8,16.9,11.5,18,22.9,.6,6.2,.9,12.4,1,18.7,.1,19.4,0,38.7,0,58.1v4.8h-14.8c-.8-3.7-1.6-7.5-2.3-11.2-.4,0-.8,0-.9,0-13.5,14.3-30.4,16.7-48.6,12.9-13.6-2.9-20.9-12.4-21.7-26.4-1.1-18.9,7.7-31.7,26.9-36.8,10-2.6,20.6-3.4,30.9-4.8,3.9-.5,7.9-.5,13.1-.8Zm-.9,12.9c-12.5,.9-24.8,1-36.5,5.1-3.4,1.2-6.8,3.2-9.4,5.7-6.5,6.2-7.3,14.1-4.7,22.2,2.4,7.6,8.9,10.2,16.2,10.5,9.7,.4,18.7-2.2,26.5-8.1,4.3-3.2,7.4-7.5,7.8-12.7,.6-7.3,.1-14.7,.1-22.6Z"/><path class="uuid-6eed4eb6-37e1-4816-afbc-75fd92228a18" d="M390.1,362.9h17.1v104.7h-17.1v-104.7Z"/><path class="uuid-6eed4eb6-37e1-4816-afbc-75fd92228a18" d="M398.6,345c-6.8,0-12.3-5.4-12.2-12,0-6.4,5.6-11.7,12.2-11.7,6.7,0,12.1,5.2,12.2,11.7,0,6.7-5.2,12-12.1,12Z"/></g></g><path class="uuid-6eed4eb6-37e1-4816-afbc-75fd92228a18" d="M501.6,453.5c-5.2,1-9.9,2.5-14.7,2.8-8.8,.6-13.4-3.4-13.5-12.1-.3-17.8-.5-64.9-.5-64.9h24.1l1.5-14.4-25.6,.6v-30.4l-16.2,5-1.1,25.4h-18.4l-.6,14.2,19-.4s0,44.3,0,60.7c0,3.9,.2,7.7,.8,11.6,1.1,7.5,3,14.6,11.5,17.3,11,3.6,21.7,2.7,32-2.2,.9-.4,2-1.5,2.1-2.3,0-3.7-.2-7.4-.4-10.8Z"/></g></svg>